<?xml version="1.0" standalone="no"?>
<!DOCTYPE svg PUBLIC "-//W3C//DTD SVG 20010904//EN"
 "http://www.w3.org/TR/2001/REC-SVG-20010904/DTD/svg10.dtd">
<svg version="1.0" xmlns="http://www.w3.org/2000/svg"
 width="64.000000pt" height="64.000000pt" viewBox="0 0 64.000000 64.000000"
 preserveAspectRatio="xMidYMid meet">
<metadata>
Created by potrace 1.11, written by Peter Selinger 2001-2013
</metadata>
<g transform="translate(0.000000,64.000000) scale(0.100000,-0.100000)"
fill="#000000" stroke="none">
<path d="M228 504 c-79 -41 -120 -120 -107 -208 7 -44 5 -56 -17 -93 -16 -28
-23 -51 -19 -64 6 -19 14 -20 150 -18 122 1 150 4 185 21 91 45 137 153 105
246 -3 7 8 35 23 63 26 48 26 50 8 64 -13 10 -52 14 -150 14 -118 -1 -135 -3
-178 -25z m182 -46 c59 -41 59 -43 -21 -171 -81 -128 -91 -134 -149 -94 -60
40 -59 43 16 170 77 130 90 138 154 95z m94 7 c-5 -12 -10 -13 -20 -4 -19 15
-18 19 6 19 13 0 18 -5 14 -15z m-289 -79 c-26 -42 -48 -76 -51 -76 -8 0 6 62
21 90 15 28 64 74 72 66 2 -2 -17 -38 -42 -80z m271 -91 c-8 -41 -47 -90 -88
-111 -34 -18 -37 -25 37 90 50 78 62 83 51 21z m-311 -109 c12 -12 12 -15 -5
-19 -23 -6 -30 0 -23 19 6 18 11 18 28 0z"/>
</g>
</svg>
