<?xml version="1.0" standalone="no"?>
<!DOCTYPE svg PUBLIC "-//W3C//DTD SVG 20010904//EN"
 "http://www.w3.org/TR/2001/REC-SVG-20010904/DTD/svg10.dtd">
<svg version="1.0" xmlns="http://www.w3.org/2000/svg"
 width="832.000000pt" height="832.000000pt" viewBox="0 0 832.000000 832.000000"
 preserveAspectRatio="xMidYMid meet">
<metadata>
Created by potrace 1.11, written by Peter Selinger 2001-2013
</metadata>
<g transform="translate(0.000000,832.000000) scale(0.100000,-0.100000)"
fill="#000000" stroke="none">
<path d="M3937 7634 c-1 -1 -33 -5 -72 -8 -92 -8 -163 -16 -200 -21 -16 -3
-48 -8 -70 -11 -22 -3 -92 -17 -155 -30 -63 -14 -126 -27 -140 -30 -14 -3 -34
-8 -45 -11 -21 -7 -26 -8 -60 -17 -30 -7 -177 -55 -200 -65 -20 -9 -115 -44
-125 -47 -82 -19 -537 -253 -562 -288 -4 -6 -8 -8 -8 -4 0 14 -301 -202 -387
-278 -18 -16 -54 -47 -79 -69 -64 -54 -228 -219 -289 -291 -27 -32 -57 -66
-66 -75 -18 -18 -98 -122 -114 -148 -5 -8 -15 -20 -21 -26 -17 -15 -125 -180
-190 -287 -98 -165 -282 -564 -272 -589 2 -3 -2 -12 -8 -20 -9 -11 -48 -127
-45 -136 0 -2 -6 -18 -15 -38 -8 -19 -12 -35 -9 -35 3 0 1 -8 -4 -18 -6 -11
-12 -30 -15 -43 -3 -13 -9 -39 -15 -56 -5 -18 -8 -33 -5 -33 3 0 0 -8 -5 -17
-5 -10 -11 -31 -14 -48 -3 -16 -8 -41 -11 -55 -10 -45 -16 -75 -21 -110 -3
-19 -7 -46 -10 -60 -5 -25 -15 -99 -21 -155 -18 -159 -24 -440 -12 -590 4 -44
7 -80 8 -80 0 0 3 -21 5 -46 2 -25 6 -59 9 -75 3 -16 8 -46 11 -68 4 -21 9
-48 11 -60 3 -11 7 -34 9 -51 6 -39 13 -72 19 -93 3 -9 8 -30 11 -47 3 -16 7
-34 9 -40 1 -5 8 -30 15 -55 12 -46 49 -177 55 -195 2 -5 5 -14 6 -20 2 -5 16
-46 32 -90 16 -44 36 -96 43 -116 13 -35 11 -40 -36 -138 -28 -56 -74 -142
-104 -193 -30 -50 -55 -93 -55 -95 0 -2 -6 -11 -12 -18 -7 -7 -24 -33 -38 -56
-26 -45 -283 -437 -297 -454 -4 -5 -21 -30 -38 -55 -16 -25 -32 -47 -35 -50
-3 -3 -23 -32 -45 -65 -22 -33 -43 -61 -47 -63 -5 -2 -8 -10 -8 -17 0 -7 -3
-15 -7 -17 -5 -2 -15 -13 -23 -25 -8 -12 -35 -50 -59 -84 -46 -66 -88 -152
-93 -191 -2 -13 -6 -27 -10 -33 -7 -12 -3 -201 5 -230 20 -69 30 -93 61 -148
78 -139 214 -238 369 -269 52 -11 448 -13 2018 -11 1075 1 1974 3 1999 6 25 2
63 7 85 11 22 3 59 8 82 11 23 3 55 8 70 10 45 6 97 15 116 21 10 3 31 7 48 9
16 2 73 16 127 30 53 15 104 28 112 30 8 2 29 8 45 15 17 6 31 11 33 11 1 -1
3 -1 5 0 1 0 9 2 17 4 126 28 669 275 701 318 3 5 8 7 10 6 2 -2 15 4 29 13
285 178 445 305 675 533 221 220 404 457 562 730 44 75 163 308 163 318 0 4
14 36 30 72 16 36 30 71 30 78 0 7 4 17 9 23 7 7 69 192 111 329 21 69 77 338
84 405 4 36 17 131 21 160 20 127 20 564 0 630 -2 8 -7 38 -10 65 -5 49 -33
220 -42 260 -2 11 -6 29 -8 40 -7 32 -45 198 -50 218 -3 9 -7 25 -9 35 -11 44
-78 256 -86 271 -5 9 -14 31 -19 50 -10 31 -8 39 24 85 19 28 35 57 35 63 0 7
9 28 20 48 11 19 18 35 15 35 -2 0 12 27 31 61 18 33 34 62 34 64 0 18 357
587 372 593 4 2 8 10 8 18 0 8 5 14 10 14 6 0 10 7 10 15 0 8 5 15 10 15 6 0
10 5 10 11 0 6 22 41 48 78 27 36 54 76 60 88 7 12 18 27 25 35 7 7 24 31 37
53 13 22 31 48 40 57 29 32 80 125 101 184 25 69 33 200 18 284 -12 66 -71
194 -108 233 -84 91 -142 135 -226 170 -100 41 -53 40 -2083 42 -1074 0 -1954
0 -1955 -1z"/>
</g>
</svg>
