<svg xmlns="http://www.w3.org/2000/svg" viewBox="0 0 1278.82 291.14"><defs><style>.cls-1{fill:#fff;}</style></defs><title>logo-skygear-w</title><g id="Layer_2" data-name="Layer 2"><g id="Layer_1-2" data-name="Layer 1"><path class="cls-1" d="M33.65,179.92c-.25-.94-.48-1.83-.68-2.68l-1.09-4.48L31.32,170c-.47-2.41-.89-4.78-1.24-7.05l0-.14c-.12-.74-.23-1.48-.33-2.21l0-.14A100.15,100.15,0,0,1,28.65,147v-1a136.94,136.94,0,0,1,5.6-37.79l0-.1A134.88,134.88,0,0,1,157.56,10.24c2.83-.16,5.5-.24,8-.24s5.18.07,7.8.22l.28,0H315.23a13.16,13.16,0,0,1,11.52,19.54C319.9,39.47,298,71,293,84.48a16.16,16.16,0,0,0-1.83,14.59c.74,2,1.43,4.1,2.07,6.18-8.13-.7-22.23-1.6-41.27-1.6-23.5,0-59.18,1.45-95.69,8.41C107.05,121.44,61.75,151,33.65,179.92Z"/><path class="cls-1" d="M165.6,20c2.38,0,4.81.07,7.23.21l.57,0H315.23a3.16,3.16,0,0,1,2.92,4.38c-8.88,12.6-28.29,40.84-34.07,55.31a26.19,26.19,0,0,0-3.83,14.41c-7.64-.39-17.13-.69-28.24-.69-23.93,0-60.29,1.49-97.57,8.59-26.93,5.13-55,16.57-81.18,33.07a265.79,265.79,0,0,0-33.47,25c0-.37-.11-.74-.16-1.12l0-.13a90.46,90.46,0,0,1-1-12.08V146a126.58,126.58,0,0,1,5.19-35l0-.1,0-.1A125.18,125.18,0,0,1,158,20.23h.18c2.55-.15,5-.22,7.38-.22m0-20c-2.86,0-5.7.09-8.53.25A145.17,145.17,0,0,0,24.66,105.33a146.4,146.4,0,0,0-6,40.55c0,.36,0,.72,0,1.08a110.71,110.71,0,0,0,1.15,14.81l0,.19c.11.79.22,1.57.34,2.36l0,.15q.58,3.72,1.31,7.43c0,.17.07.35.1.52.12.61.25,1.22.37,1.82.05.23.1.46.14.69.12.57.25,1.15.37,1.72.05.21.09.42.14.63q.25,1.16.51,2.28l.12,0q.6,2.44,1.28,4.86c0,.12.07.25.1.37a144.06,144.06,0,0,0,5.06,14.71.19.19,0,0,1,0-.07c25.86-32.54,75.92-67.58,128.48-77.59,33.33-6.35,67-8.23,93.82-8.23a448.52,448.52,0,0,1,45.74,2.08c2.05.23,8.25.45,8.25.45s-1-6-1.55-8.24q-1.65-6.25-3.84-12.28a6.19,6.19,0,0,1,.83-5.75l0,0a6.18,6.18,0,0,0,.84-1.61c4.31-12.55,30.25-49.39,32.69-52.84a4.62,4.62,0,0,0,.35-.55A23.16,23.16,0,0,0,315.23.24H174C171.19.08,168.41,0,165.6,0Z"/><path class="cls-1" d="M163.4,281.14c-2.54,0-5.16-.07-7.77-.22H14.11a11.89,11.89,0,0,1-2.27-.23c11.75-16.17,69.71-74.38,137.6-102,53.55-21.77,125.73-24.15,150.23-24.29C294.56,225.07,235.2,281.14,163.4,281.14Z"/><path class="cls-1" d="M288.44,164.6a126.89,126.89,0,0,1-125,106.54c-2.36,0-4.79-.07-7.21-.2l-.56,0H33.84a384.68,384.68,0,0,1,28.65-26.34C83.49,227,116.27,203,153.21,188c22.48-9.14,51.06-15.79,84.93-19.75,19.78-2.32,37.45-3.25,50.3-3.61m13.64-20.19c-24.42,0-100.14,2.15-156.41,25C69.75,200.31,3.85,269.55.51,280.4c-.89,2.87-.84,5.84,2,7.35a24.51,24.51,0,0,0,11.65,3.16h141q4.14.22,8.34.23c80.49,0,146-65.19,146.62-145.55,0-.36,0-.71,0-1.07,0,0-2.87-.11-7.95-.11Z"/><path class="cls-1" d="M405.16,194.7l18.51-23.2q13.6,11.82,26.21,17.29a66.3,66.3,0,0,0,26.65,5.46q14.49,0,23.2-5.35t8.7-14.28q0-8-5.91-12.49t-19.74-6.69l-31-5.35Q431.7,146.75,421.33,136T411,108.38q0-21.85,16.62-34.58t44.95-12.71a107,107,0,0,1,34.23,5.8A98.74,98.74,0,0,1,537,83L519.58,107A97.5,97.5,0,0,0,495,92.88a69.16,69.16,0,0,0-24.75-4.58q-12.94,0-20.75,4.8t-7.8,12.82c0,4.76,1.7,8.48,5.13,11.16s9.14,4.61,17.17,5.8l29.44,4.9q23.2,3.79,34.91,14.83t11.71,29.11q0,22.75-18,36.36T474.3,221.69a100.15,100.15,0,0,1-36.91-7.14A104.42,104.42,0,0,1,405.16,194.7Z"/><path class="cls-1" d="M557.49,219.45V63.32l30.56-6.69v95.69l50.19-49.07h34.57l-54.42,53.31,57.77,62.89h-39l-49.07-53.08v53.08Z"/><path class="cls-1" d="M717.86,224.81l1.79-4.24L674.37,103.25h33.68l28.77,79.18,33-79.18h33L749.31,228.6q-8.92,21-20.74,29.89t-30.78,8.92c-2.68,0-5.24-.11-7.7-.33a31.32,31.32,0,0,1-5.91-1V239.75a44.1,44.1,0,0,0,4.69.67q2.45.22,6,.22a23.53,23.53,0,0,0,13.94-4A27.08,27.08,0,0,0,717.86,224.81Z"/><path class="cls-1" d="M864,220.12a57.52,57.52,0,0,1-23.09-4.68,58.74,58.74,0,0,1-18.73-12.71,59.65,59.65,0,0,1-17.07-42.16,57.56,57.56,0,0,1,4.69-23.09,60.13,60.13,0,0,1,12.71-18.84,58.31,58.31,0,0,1,19-12.61,60.18,60.18,0,0,1,23.42-4.57,55.71,55.71,0,0,1,16.62,2.46,60,60,0,0,1,14.83,6.91v-7.58h30.11v116.2q0,23-14.83,35.47t-42.71,12.49a121.29,121.29,0,0,1-25.77-2.68,95.42,95.42,0,0,1-22.64-7.8l10.71-23.87a99.12,99.12,0,0,0,18.74,7,73.47,73.47,0,0,0,18.29,2.34q13.59,0,20.63-5.91t7-17.29v-9.59a52.87,52.87,0,0,1-15.05,7.81A53.7,53.7,0,0,1,864,220.12Zm-28.77-59.55a32.67,32.67,0,0,0,9.7,23.87,32.12,32.12,0,0,0,23.75,9.81,40.19,40.19,0,0,0,15.17-2.79,37.54,37.54,0,0,0,12-7.69V138a34.53,34.53,0,0,0-12-7.69,40.69,40.69,0,0,0-14.94-2.79A32.89,32.89,0,0,0,845,137.15,31.47,31.47,0,0,0,835.19,160.57Z"/><path class="cls-1" d="M1054.66,205a69.85,69.85,0,0,1-47.06,16.73A64.69,64.69,0,0,1,983,217a62.28,62.28,0,0,1-19.85-12.71,58.92,58.92,0,0,1-18-42.83,60.87,60.87,0,0,1,4.57-23.53,59.18,59.18,0,0,1,55.2-36.69,54.87,54.87,0,0,1,22.86,4.79,56.67,56.67,0,0,1,18.29,13,59.61,59.61,0,0,1,12,19.74,69.67,69.67,0,0,1,4.35,24.87v8H975.93a32.58,32.58,0,0,0,12,17.62,34,34,0,0,0,21,6.69,41,41,0,0,0,14.27-2.45,32.51,32.51,0,0,0,11.38-6.91Zm-50.41-78.52a27.18,27.18,0,0,0-18.06,6.36,32.74,32.74,0,0,0-10.49,17.06h56.88A33.66,33.66,0,0,0,1022,133,26.54,26.54,0,0,0,1004.25,126.44Z"/><path class="cls-1" d="M1117.56,221.46q-18.74,0-30.56-9.92t-11.82-25.77q0-16.5,12.72-25.87t35-9.37a92.81,92.81,0,0,1,28.33,4.46v-8.25q0-10-6.24-15.17t-18.29-5.13a60.5,60.5,0,0,0-16,2.35,136.87,136.87,0,0,0-19.52,7.24l-11.15-22.52a146.89,146.89,0,0,1,26.43-9.37,106.84,106.84,0,0,1,25.32-3.12q23.42,0,36.46,11.26t13,31.78v75.39h-30.11v-8a54.63,54.63,0,0,1-15.5,7.58A63.11,63.11,0,0,1,1117.56,221.46ZM1104.4,185.1a12.14,12.14,0,0,0,5.8,10.6q5.8,3.9,15.39,3.9a48.8,48.8,0,0,0,13.94-1.89,43.13,43.13,0,0,0,11.71-5.47V174.85a55.52,55.52,0,0,0-11.71-3.24,79.21,79.21,0,0,0-12.82-1q-10.5,0-16.4,3.9A12.09,12.09,0,0,0,1104.4,185.1Z"/><path class="cls-1" d="M1204.55,219.45V103.25h30.56V116a36.93,36.93,0,0,1,13.49-11.49,39.07,39.07,0,0,1,17.51-3.9,58.58,58.58,0,0,1,7.47.78,15.43,15.43,0,0,1,5.24,1.9V130a31.56,31.56,0,0,0-7.36-2.34,43.14,43.14,0,0,0-8.25-.78,31.4,31.4,0,0,0-16.39,4.46,30.48,30.48,0,0,0-11.71,12.94v75.16Z"/></g></g></svg>