<svg xmlns="http://www.w3.org/2000/svg" viewBox="0 0 1449.39 348.98"><defs><style>.cls-1{fill:#222;}.cls-2{fill:#73caff;}.cls-3{fill:#4da9ff;}.cls-4{fill:#0b82f9;}.cls-5{fill:#0043e0;}</style></defs><title>logo-skygear</title><g id="Layer_2" data-name="Layer 2"><g id="Layer_1-2" data-name="Layer 1"><path class="cls-1" d="M566.73,154.74l-13.57-5.16c-12.21-4.61-18.46-6.24-22.8-10.31-2.71-2.45-4.07-5.7-4.07-10a16.15,16.15,0,0,1,4.62-11.4c4.88-5.43,11.94-6.24,17.63-6.24,4.15,0,12.49.52,22.65,7.06a9.51,9.51,0,0,0,13.25-3L592.87,102a9.52,9.52,0,0,0-3.19-13.14,86.86,86.86,0,0,0-45.75-12.55c-16.82,0-32,3.52-44.78,16.55-10.85,11.13-15.73,24.7-15.73,40.71,0,8.68,1.35,21.44,10.85,31.48,7.06,7.6,16.82,11.39,25.24,14.38l14.92,5.16c5.16,1.9,16.29,6,21.17,10,3.8,3.25,6.24,7.05,6.24,13a18.73,18.73,0,0,1-6.51,14.66c-6,5.15-13.57,6.24-19,6.24A42,42,0,0,1,513.54,222a80.89,80.89,0,0,1-9.25-6.92,9.49,9.49,0,0,0-13.81,1.66L480,231.2A9.52,9.52,0,0,0,481.5,244a107.31,107.31,0,0,0,20.1,13.83c11.39,5.69,22.8,7.59,35.82,7.59,11.94,0,35.28-1.63,51.29-18.45,9.49-9.77,16-26.05,16-44.78,0-10.58-2.72-23.61-13.3-33.64C584.37,161.79,574.6,157.72,566.73,154.74Z"/><path class="cls-1" d="M704.51,172.29a9.51,9.51,0,0,1,.09-12.24l54.69-64a9.5,9.5,0,0,0-7.22-15.67H726.15a9.5,9.5,0,0,0-7.34,3.47l-42.18,51.44a9.51,9.51,0,0,1-16.85-6V89.88a9.49,9.49,0,0,0-9.49-9.5h-22.8a9.5,9.5,0,0,0-9.5,9.5v162a9.5,9.5,0,0,0,9.5,9.5h22.8a9.49,9.49,0,0,0,9.49-9.5V207.94a9.5,9.5,0,0,1,16.89-6l45.12,55.88a9.5,9.5,0,0,0,7.39,3.53h29a9.5,9.5,0,0,0,7.31-15.56Z"/><path class="cls-1" d="M876.63,80.38h-26.4a9.49,9.49,0,0,0-8,4.34l-25.58,39.52a9.5,9.5,0,0,1-15.95,0l-16.1-24.88c-2-2.52-3.93-2.72-5.8-.46l-22.35,23.65c-2,2.31-1.68,5.2.57,8.61l29.15,43.42a9.52,9.52,0,0,1,1.61,5.3v72a9.5,9.5,0,0,0,9.5,9.5h22.79a9.5,9.5,0,0,0,9.5-9.5v-72a9.52,9.52,0,0,1,1.61-5.3l53.32-79.41A9.5,9.5,0,0,0,876.63,80.38Z"/><path class="cls-1" d="M1041.91,180.64v-9.71a10.72,10.72,0,0,0-10.72-10.72H981.11c-5.92,0-12.11,3-17.13,10.72-3.51,5.37-11,15.3-12.07,20.15s4.8,10.71,10.71,10.71h33.82c-7,19.18-23.89,21.87-37.07,21.87-27.77,0-46.35-20.15-47.62-49.28-1.29-29.7,18.3-56.69,45.79-56.69H990a10.94,10.94,0,0,0,11.23-10.8V88.45A11.52,11.52,0,0,0,990,77H957.54c-25.31,0-43.5,12.79-57.39,26.38C882.41,120.71,871,146.69,871,172.1c0,52.32,35.14,92.25,87.46,92.25,10.29,0,30.57,2.41,49.47-9.56,15.5-9.81,34.68-27.83,34.59-62.71l-.08-11.4Z"/><path class="cls-1" d="M1447.47,245l-36.56-48.69a9.56,9.56,0,0,1,3.58-14.31,56.69,56.69,0,0,0,14-9.72c11.67-11.39,14.11-25.51,14.11-36.9,0-20.08-8.14-33.11-15.74-40.44-8.68-8.14-23.06-15.74-46.13-15.74h-54a9.5,9.5,0,0,0-9.5,9.5v162a9.49,9.49,0,0,0,9.5,9.49h22.79a9.49,9.49,0,0,0,9.5-9.49V219.57a9.5,9.5,0,0,1,17.34-5.36l28.68,41.9a9.48,9.48,0,0,0,7.84,4.13h27A9.5,9.5,0,0,0,1447.47,245Zm-54-91.44c-7.06,7.05-17.37,7.87-25,7.87a9.5,9.5,0,0,1-9.5-9.5V121.31a9.5,9.5,0,0,1,9.5-9.5h.27c5.43,0,16.28.54,23.07,5.7,3.52,2.71,8.41,8.13,8.41,18.45C1400.27,144.91,1396.47,150.61,1393.49,153.6Z"/><path class="cls-1" d="M1287.09,80H1273c-25.24,0-48.58,7.13-65.33,20.47-19,15.11-29.65,37.25-29.65,62.74v89.92a6.65,6.65,0,0,0,6.65,6.65h27.88a6.65,6.65,0,0,0,6.65-6.65V209.27a6.65,6.65,0,0,1,6.65-6.65H1252a6.65,6.65,0,0,1,6.65,6.65v43.08a6.65,6.65,0,0,0,6.65,6.65h27.87a6.65,6.65,0,0,0,6.65-6.65V92.78A12.76,12.76,0,0,0,1287.09,80Zm-28.4,74.79a6.65,6.65,0,0,1-6.65,6.65h-22.43c-4.87,0-7-4.71-6-9.47,2.83-13.47,13.25-28.24,26.43-29.83,4.47-.53,8.68,3.5,8.68,8Z"/><path class="cls-1" d="M1150.61,80.68h-83.87a12.1,12.1,0,0,0-12.1,12.1v136a12.47,12.47,0,0,0-.48,3.37v16.27a12.23,12.23,0,0,0,12.23,12.23h82.77a12.23,12.23,0,0,0,12.23-12.23V232.16a12.24,12.24,0,0,0-12.23-12.23h-53.79V201.79h21.76c5.92,0,12.11-3,17.13-10.71,3.51-5.37,11-15.31,12.07-20.15s-4.8-10.72-10.71-10.72h-40.25V128.52a12.09,12.09,0,0,1,12.1-12.09h43.14a12.09,12.09,0,0,0,12.09-12.1V92.78A12.09,12.09,0,0,0,1150.61,80.68Z"/><path class="cls-2" d="M412.55,42.16A27.78,27.78,0,0,0,388.63.28H219.3C216,.1,212.64,0,209.28,0s-6.84.11-10.22.3a174,174,0,0,0-158.72,126,175.32,175.32,0,0,0-7.2,48.6c0,.43,0,.86,0,1.29,0,11.91,2.44,26.33,5.38,39.07l.14.06A173.92,173.92,0,1,0,369.73,111c1-1.42,2.09-2.83,3.1-4.23C377.09,92.08,412.55,42.16,412.55,42.16Z"/><path class="cls-3" d="M200.39,146.09c85.68-16.87,173.32-8.05,177.85-5.6a173.65,173.65,0,0,0-7.73-27.4l-1.12-2s-108-26.89-204,0c-75,21-118,62-131.26,79.88a235.94,235.94,0,0,0,4.38,24.25l.14.06a172.39,172.39,0,0,0,7.72,23.88s0,0,0-.07C82.39,201.09,134.39,159.09,200.39,146.09Z"/><path class="cls-4" d="M200.39,146.09c-63,12-123,54-154,93-4.25,14.66-42.56,67.82-42.56,67.82A27.71,27.71,0,0,0,27.7,348.69h169q5,.29,10,.29c96.48,0,175.05-78.15,175.74-174.47,0-.43,0-.86,0-1.28,0-9.92-1.69-21.59-4-32.57C378,138.48,288.25,129.36,200.39,146.09Z"/><path class="cls-5" d="M185.39,203.09c-91,37-170,120-174,133-1.06,3.45-1,7,2.34,8.81a29.28,29.28,0,0,0,14,3.79h169q5,.29,10,.29c96.48,0,175.05-78.15,175.74-174.47,0-.43,0-.86,0-1.28C382.39,173.09,266.87,170,185.39,203.09Z"/></g></g></svg>