<?xml version="1.0" encoding="UTF-8"?>
<svg width="150px" height="30px" viewBox="0 0 150 30" version="1.1" xmlns="http://www.w3.org/2000/svg" xmlns:xlink="http://www.w3.org/1999/xlink">
    <!-- Generator: Sketch 54.1 (76490) - https://sketchapp.com -->
    <title>Group 7</title>
    <desc>Created with Sketch.</desc>
    <g id="Desktop" stroke="none" stroke-width="1" fill="none" fill-rule="evenodd">
        <g id="Skygear-landing" transform="translate(-109.000000, -44.000000)" fill="#166BEF">
            <g id="Group-7" transform="translate(109.000000, 44.000000)">
                <path d="M16.5805452,6.14567442 C16.1446857,6.84661689 15.2120163,7.05083354 14.5132924,6.60512974 C12.9284547,5.59394247 11.6265821,5.51310404 10.9801198,5.51310404 C10.0910234,5.51310404 8.99041654,5.63853856 8.22827835,6.47789596 C7.80486824,6.8975104 7.50867569,7.52673929 7.50867569,8.24027662 C7.50867569,8.91127417 7.72018622,9.41481151 8.14346665,9.79265728 C8.82079313,10.4218862 9.79496058,10.6736548 11.6999818,11.3869351 L13.816773,12.1843953 C15.0444678,12.6455214 16.5687442,13.2751359 17.6693511,14.3241077 C19.3205856,15.8761028 19.7438661,17.8902521 19.7438661,19.5265557 C19.7438661,22.4217026 18.7276818,24.9388752 17.2460707,26.4497442 C14.7482752,29.0508397 11.107078,29.3023513 9.24433292,29.3023513 C7.21248314,29.3023513 5.43377166,29.008814 3.65583826,28.1279449 C2.62085019,27.6148972 1.47602189,26.7980306 0.521047308,25.9897748 C-0.0683551198,25.4906071 -0.172100322,24.6279878 0.283730159,24.0067271 L1.92082944,21.7756377 C2.42749507,21.0849767 3.4178727,20.9685386 4.07626569,21.5192424 C4.58357973,21.943612 5.10671491,22.3402215 5.51884272,22.5894198 C6.61944963,23.2606744 7.76272176,23.5964945 9.07483919,23.5964945 C9.9216594,23.5964945 11.107078,23.4282632 12.0387099,22.6314455 C12.5890782,22.1701909 13.0548942,21.4148849 13.0548942,20.3657846 C13.0548942,19.4427613 12.6736306,18.8550441 12.0807267,18.3521493 C11.3189776,17.7222778 9.58293132,17.0931775 8.77864664,16.7993831 L6.45021527,16.0020514 C5.13744942,15.5406683 3.61356209,14.9532081 2.51295518,13.7786732 C1.03095497,12.2262925 0.819185081,10.2539119 0.819185081,8.91127417 C0.819185081,6.43599878 1.58132327,4.33805508 3.27470433,2.61770012 C5.26479666,0.603293758 7.63576356,0.058373317 10.2607765,0.058373317 C11.960901,0.058373317 14.5656837,0.313869033 17.397409,1.99939535 C18.1040435,2.42003794 18.326966,3.33573562 17.8951266,4.03115177 L16.5805452,6.14567442 Z" id="Fill-1"></path>
                <path d="M30.4441271,9.1713005 L36.930005,1.31988874 C37.2073595,0.98425529 37.6216019,0.789473684 38.0592341,0.789473684 L42.0441923,0.789473684 C43.2908817,0.789473684 43.9642013,2.24037458 43.1543772,3.18116339 L34.7454228,12.9524746 C34.2837617,13.4885999 34.2777545,14.2767357 34.7312355,14.8199671 L44.1054348,26.0458591 C44.894681,26.9909623 44.2179104,28.4210526 42.9811904,28.4210526 L38.5253686,28.4210526 C38.0837742,28.4210526 37.6660809,28.2230987 37.3888542,27.8820088 L30.4511568,19.3518434 C29.5858618,18.2880948 27.8543772,18.8952804 27.8543772,20.2628123 L27.8543772,26.9711669 C27.8543772,27.7718652 27.2007408,28.4210526 26.3942398,28.4210526 L22.8890922,28.4210526 C22.0824635,28.4210526 21.4285714,27.7718652 21.4285714,26.9711669 L21.4285714,2.23935943 C21.4285714,1.43866111 22.0824635,0.789473684 22.8890922,0.789473684 L26.3942398,0.789473684 C27.2007408,0.789473684 27.8543772,1.43866111 27.8543772,2.23935943 L27.8543772,8.25170291 C27.8543772,9.61352453 29.5744864,10.2242632 30.4441271,9.1713005" id="Fill-4"></path>
                <path d="M61.9933073,0.789473684 L57.8331901,0.789473684 C57.3257469,0.789473684 56.8528754,1.03881952 56.5770882,1.45160425 L52.5466145,7.48463138 C51.9570637,8.36730294 50.6242234,8.36730294 50.0344107,7.48463138 L47.497064,3.68632663 C47.1825147,3.30247363 46.8779178,3.27176539 46.5834044,3.61640828 L43.0624691,7.22665678 C42.755646,7.57954776 42.7985986,8.02088354 43.1517791,8.54165468 L47.7446962,15.1705739 C47.9104828,15.4096414 47.9987452,15.6910913 47.9987452,15.9788859 L47.9987452,26.9711669 C47.9987452,27.7718652 48.6685702,28.4210526 49.4948841,28.4210526 L53.0861411,28.4210526 C53.912455,28.4210526 54.58228,27.7718652 54.58228,26.9711669 L54.58228,15.9788859 C54.58228,15.6910913 54.6708043,15.4096414 54.8364599,15.1705739 L63.2355282,3.04767137 C63.9028651,2.0845493 63.1906113,0.789473684 61.9933073,0.789473684" id="Fill-6"></path>
                <path d="M87.287415,16.5039904 L87.3015379,18.231115 C87.3156608,23.5163884 84.2978003,26.2457339 81.8592413,27.7330711 C78.8864957,29.5463378 75.6956293,29.1802338 74.0760694,29.1802338 C65.8451483,29.1802338 60.3174603,23.1311416 60.3174603,15.2043021 C60.3174603,11.3537235 62.1174798,7.41725458 64.9083274,4.78651912 C67.0926736,2.72754578 69.9546589,0.789473684 73.9369324,0.789473684 L79.0366172,0.789473684 C80.0049532,0.789473684 80.803814,1.59724511 80.803814,2.52969593 L80.803814,5.32377401 C80.803814,6.25622484 80.0049532,6.96047457 79.0366172,6.96047457 L73.9369324,6.96047457 C69.6120471,6.96047457 66.5295873,11.0490775 66.7331928,15.5491225 C66.9330061,19.963655 69.8551446,23.0157817 74.2238371,23.0157817 C76.9757158,23.0157817 80.7673298,22.3013309 80.5518243,15.9764328 L87.287415,16.5039904" id="Fill-8"></path>
                <path d="M103.654264,28.4210526 L90.7901809,28.4210526 C89.7401809,28.4210526 88.8888889,27.5719012 88.8888889,26.5242535 L88.8888889,24.0020623 C88.8888889,22.9544146 89.7401809,22.1052632 90.7901809,22.1052632 L103.654264,22.1052632 C104.704393,22.1052632 105.555556,22.9544146 105.555556,24.0020623 L105.555556,26.5242535 C105.555556,27.5719012 104.704393,28.4210526 103.654264,28.4210526" id="Fill-10"></path>
                <path d="M135.890262,11.8918473 C135.890262,12.6927957 136.55398,13.3419802 137.373051,13.3419802 C138.559283,13.3419802 140.169521,13.217752 141.271263,12.1408113 C141.73719,11.684758 142.330305,10.8149067 142.330305,9.44725422 C142.330305,7.8732738 141.567821,7.04478959 141.017144,6.63073783 C139.957842,5.84374762 138.262725,5.7610134 137.415491,5.7610134 L137.373051,5.7610134 C136.55398,5.7610134 135.890262,6.41007095 135.890262,7.21101939 L135.890262,11.8918473 Z M139.279717,0.789473684 C142.880982,0.789473684 145.126905,1.94927544 146.482635,3.1920652 C147.668997,4.31049985 148.940237,6.29954717 148.940237,9.36502757 C148.940237,11.1048571 148.55893,13.2591191 146.736883,14.9988217 C146.145844,15.5516944 145.398025,16.0746203 144.55157,16.4832157 C143.706672,16.8909228 143.425947,17.9306838 143.991419,18.6674244 L149.700256,26.100434 C150.434188,27.0563187 149.736725,28.4210526 148.514284,28.4210526 L144.298749,28.4210526 C143.809461,28.4210526 143.351451,28.1849048 143.07488,27.7900139 L138.596791,21.3927047 C137.773437,20.2164069 135.890262,20.7861563 135.890262,22.2115451 L135.890262,26.9710466 C135.890262,27.7718682 135.226024,28.4210526 134.407083,28.4210526 L130.848128,28.4210526 C130.028928,28.4210526 129.365079,27.7718682 129.365079,26.9710466 L129.365079,2.23947967 C129.365079,1.43865812 130.028928,0.789473684 130.848128,0.789473684 L139.279717,0.789473684 Z" id="Fill-12"></path>
                <path d="M115.058754,11.8517376 C115.50119,9.78116409 117.130862,7.51117266 119.191405,7.26742548 C119.890207,7.18477117 120.5473,7.80512563 120.5473,8.49714789 L120.5473,12.2840439 C120.5473,12.8485716 120.081865,13.3061724 119.507802,13.3061724 L116.001318,13.3061724 C115.240796,13.3061724 114.902439,12.5836179 115.058754,11.8517376 L115.058754,11.8517376 Z M122.783388,0.789473684 C118.837846,0.789473684 115.189471,1.88620825 112.570067,3.93595851 C109.603342,6.25781648 107.936508,9.6613345 107.936508,13.5785356 L107.936508,27.3990519 C107.936508,27.9634518 108.401943,28.4210526 108.976005,28.4210526 L113.333838,28.4210526 C113.9079,28.4210526 114.373335,27.9634518 114.373335,27.3990519 L114.373335,20.6565296 C114.373335,20.0921297 114.83864,19.6345289 115.412833,19.6345289 L119.507802,19.6345289 C120.081865,19.6345289 120.5473,20.0921297 120.5473,20.6565296 L120.5473,27.2769228 C120.5473,27.8413227 121.012735,28.2989235 121.586797,28.2989235 L125.9445,28.2989235 C126.518692,28.2989235 126.984127,27.8413227 126.984127,27.2769228 L126.984127,2.75260939 C126.984127,1.66852208 126.090029,0.789473684 124.987383,0.789473684 L122.783388,0.789473684 Z" id="Fill-14"></path>
                <path d="M103.690556,0.789473684 L90.7540171,0.789473684 C89.7240171,0.789473684 88.8888889,1.62372785 88.8888889,2.65293592 L88.8888889,26.5575904 C88.8888889,27.5866704 89.7240171,28.4210526 90.7540171,28.4210526 L93.3059402,28.4210526 C94.3359402,28.4210526 95.1709402,27.5866704 95.1709402,26.5575904 L95.1709402,8.16083228 C95.1709402,7.13162421 96.0060684,6.29737004 97.0360684,6.29737004 L103.690556,6.29737004 C104.720556,6.29737004 105.555556,5.46298779 105.555556,4.43390781 L105.555556,2.65293592 C105.555556,1.62372785 104.720556,0.789473684 103.690556,0.789473684" id="Fill-16"></path>
                <path d="M98.5259737,19.7368421 L90.587226,19.7368421 C89.6491948,19.7368421 88.8888889,19.0081652 88.8888889,18.1091563 L88.8888889,15.0487384 C88.8888889,14.1498558 89.6491948,13.4210526 90.587226,13.4210526 L101.455477,13.4210526 C102.393376,13.4210526 103.326533,14.3131169 103.153814,15.0487384 C102.981095,15.7844862 101.796962,17.2937351 101.240731,18.1091563 C100.44538,19.275595 99.4640048,19.7368421 98.5259737,19.7368421" id="Fill-18"></path>
                <path d="M77.6645025,13.4210526 L85.603382,13.4210526 C86.5412814,13.4210526 87.3015873,14.1497296 87.3015873,15.0487384 L87.3015873,18.1091563 C87.3015873,19.0080389 86.5412814,19.7368421 85.603382,19.7368421 L74.7349995,19.7368421 C73.7971001,19.7368421 72.8639435,18.8447779 73.0366624,18.1091563 C73.2093814,17.3734085 74.3936457,15.8641596 74.9497454,15.0487384 C75.7452275,13.8822997 76.7266031,13.4210526 77.6645025,13.4210526" id="Fill-20"></path>
            </g>
        </g>
    </g>
</svg>